#!OML:ASF F:\VICON\USERDATA\INSTALL\rory3\rory3.ASF
:FULLY-SPECIFIED
:DEGREES
281
root 1.46918 18.1753 0.572566 206.989 86.9129 209.505
lowerback 9.23556 0.705704 -0.0858978
upperback 0.678685 0.966472 0.216256
thorax -4.47931 0.492976 0.147059
lowerneck -20.5182 -6.81689 -13.4051
upperneck 28.4317 -7.73167 9.32908
head 14.0892 -3.43009 4.65022
rclavicle -1.60519e-014 8.15017e-015
rhumerus -35.8535 -12.747 -82.2176
rradius 29.1634
rwrist 7.6182
rhand -13.3604 9.40953
rfingers 7.12502
rthumb 12.7458 -20.1814
lclavicle -1.60519e-014 8.15017e-015
lhumerus -37.9698 8.16094 82.3662
lradius 34.0552
lwrist -4.28778
lhand -18.0204 24.4804
lfingers 7.12502
lthumb 8.25063 54.2993
rfemur -4.161 3.9784 21.9217
rtibia 20.9962
rfoot -11.1646 3.09399
rtoes 6.30139
lfemur 1.01243 -4.11191 -20.9192
ltibia 14.5401
lfoot -8.13477 -3.89084
ltoes 7.45541
282
root 1.47919 18.1795 0.582751 207.084 86.9116 209.624
lowerback 9.24801 0.715635 -0.0907585
upperback 0.670039 0.978947 0.213499
thorax -4.49538 0.499157 0.145077
lowerneck -20.5067 -6.83829 -13.419
upperneck 28.3525 -7.75608 9.32164
head 14.0563 -3.44409 4.64111
rclavicle -4.84538e-015 1.98785e-015
rhumerus -35.8963 -12.9425 -82.0648
rradius 29.0465
rwrist 7.87674
rhand -13.1688 9.56378
rfingers 7.12502
rthumb 12.9304 -20.0156
lclavicle -4.84538e-015 1.98785e-015
lhumerus -37.9963 8.25466 82.3464
lradius 34.0031
lwrist -4.33232
lhand -17.7697 24.1993
lfingers 7.12502
lthumb 8.49261 54.0086
rfemur -3.98876 4.05811 21.9694
rtibia 20.8103
rfoot -11.1051 3.05803
rtoes 6.81696
lfemur 1.07618 -4.30955 -20.8725
ltibia 14.5357
lfoot -8.14656 -3.83948
ltoes 9.7849
283
root 1.48661 18.1804 0.593287 202.449 86.8608 204.976
lowerback 9.23796 0.669772 -0.258427
upperback 0.671481 0.896937 0.137631
thorax -4.48922 0.461156 0.171379
lowerneck -20.5783 -6.84362 -13.4786
upperneck 28.3161 -7.75717 9.3929
head 14.0629 -3.44082 4.67848
rclavicle -9.85227e-015 -4.77083e-015
rhumerus -35.8709 -13.2973 -81.8548
rradius 28.8543
rwrist 8.39467
rhand -13.2376 9.56317
rfingers 7.12502
rthumb 12.8641 -20.0204
lclavicle -9.85227e-015 -4.77083e-015
lhumerus -38.0063 8.34573 82.3198
lradius 33.9503
lwrist -4.43728
lhand -17.7219 24.0049
lfingers 7.12502
lthumb 8.5387 53.8122
rfemur -3.8964 3.99503 21.7949
rtibia 20.7015
rfoot -11.0695 2.89126
rtoes 7.0224
lfemur 1.12493 -4.34095 -21.0426
ltibia 14.4339
lfoot -8.11522 -4.00099
ltoes 9.73226
284
root 1.49482 18.1821 0.608182 200.744 86.9128 203.221
lowerback 9.1823 0.659659 -0.466509
upperback 0.66125 0.861235 0.126826
thorax -4.47142 0.447286 0.282452
lowerneck -20.7361 -6.79614 -13.424
upperneck 28.3764 -7.6761 9.34964
head 14.1054 -3.40273 4.66779
rclavicle -4.79568e-015 2.98177e-015
rhumerus -35.7863 -13.3749 -81.7757
rradius 28.6706
rwrist 8.64028
rhand -13.4901 9.35958
rfingers 7.12502
rthumb 12.6207 -20.2392
lclavicle -4.79568e-015 2.98177e-015
lhumerus -38.0252 8.36669 82.3272
lradius 33.9081
lwrist -4.6459
lhand -17.7573 24.0256
lfingers 7.12502
lthumb 8.50458 53.8343
rfemur -3.91548 4.04425 21.7499
rtibia 20.7117
rfoot -11.1227 2.78115
rtoes 7.01204
lfemur 1.21689 -4.23783 -21.0874
ltibia 14.2172
lfoot -8.07876 -4.15141
ltoes 8.93568
285
root 1.50179 18.1814 0.624598 204.092 87.018 206.483
lowerback 9.09271 0.688337 -0.44765
upperback 0.63579 0.901948 0.150814
thorax -4.44829 0.466939 0.292455
lowerneck -20.8417 -6.72766 -13.3302
upperneck 28.3854 -7.59389 9.33798
head 14.1136 -3.35651 4.66241
rclavicle 7.33018e-016 9.93923e-016
rhumerus -35.7196 -13.3892 -81.7921
rradius 28.5435
rwrist 8.72945
rhand -13.4908 9.14656
rfingers 7.12502
rthumb 12.6201 -20.4522
lclavicle 7.33018e-016 9.93923e-016
lhumerus -38.0369 8.14464 82.3832
lradius 33.8959
lwrist -4.41425
lhand -18.0886 24.3032
lfingers 7.12502
lthumb 8.18481 54.1247
rfemur -4.02208 4.19809 21.959
rtibia 20.7666
rfoot -11.1602 2.74159
rtoes 7.55711
lfemur 1.28262 -4.07357 -20.8927
ltibia 13.9843
lfoot -8.05725 -4.15472
ltoes 7.87931
286
root 1.50484 18.1811 0.635566 206.594 86.9961 208.904
lowerback 9.07639 0.692989 -0.253282
upperback 0.57697 0.925395 0.119084
thorax -4.49707 0.474027 0.146965
lowerneck -20.7993 -6.69327 -13.3349
upperneck 28.3375 -7.58849 9.46958
head 14.0895 -3.33754 4.71829
rclavicle 1.21631e-014 3.97569e-016
rhumerus -35.7366 -13.5801 -81.7152
rradius 28.405
rwrist 8.99285
rhand -13.1446 9.33329
rfingers 7.12502
rthumb 12.9538 -20.2446
lclavicle 1.21631e-014 3.97569e-016
lhumerus -38.0772 7.82902 82.4499
lradius 33.8949
lwrist -3.96984
lhand -18.3557 24.3095
lfingers 7.12502
lthumb 7.92704 54.1408
rfemur -4.1005 4.26758 22.1484
rtibia 20.7595
rfoot -11.116 2.65318
rtoes 8.38322
lfemur 1.27404 -4.21572 -20.7432
ltibia 13.8713
lfoot -8.06153 -3.93212
ltoes 6.84006
287
root 1.50872 18.1838 0.643452 205.785 86.974 208.036
lowerback 9.09782 0.677854 -0.197498
upperback 0.519087 0.907821 0.073628
thorax -4.5677 0.463388 0.0699284
lowerneck -20.7908 -6.69694 -13.3673
upperneck 28.3301 -7.61331 9.56181
head 14.0945 -3.33943 4.7577
rclavicle 9.56651e-016 -9.93923e-016
rhumerus -35.7711 -13.6951 -81.601
rradius 28.282
rwrist 9.17452
rhand -13.1264 9.50303
rfingers 7.12502
rthumb 12.9714 -20.0737
lclavicle 9.56651e-016 -9.93923e-016
lhumerus -38.1618 7.69057 82.4929
lradius 33.8942
lwrist -4.01667
lhand -18.1248 24.1331
lfingers 7.12502
lthumb 8.14992 53.9559
rfemur -4.13701 4.2842 22.1619
rtibia 20.7198
rfoot -11.0995 2.54027
rtoes 8.23284
lfemur 1.23823 -4.40995 -20.7643
ltibia 13.8455
lfoot -8.05113 -3.76668
ltoes 6.68227
288
root 1.51401 18.1827 0.653929 205.855 86.972 208.067
lowerback 9.09085 0.682298 -0.219088
upperback 0.480677 0.910755 0.0723391
thorax -4.60418 0.464985 0.080158
lowerneck -20.7526 -6.67351 -13.1031
upperneck 28.2632 -7.62481 9.39805
head 14.0362 -3.33788 4.63876
rclavicle -1.9133e-015 -2.98177e-015
rhumerus -35.7718 -13.8218 -81.4787
rradius 28.1804
rwrist 9.16704
rhand -13.1939 9.69753
rfingers 7.12502
rthumb 12.9063 -19.8834
lclavicle -1.9133e-015 -2.98177e-015
lhumerus -38.2619 7.64591 82.5297
lradius 33.9107
lwrist -4.38317
lhand -18.083 24.2417
lfingers 7.12502
lthumb 8.19026 54.063
rfemur -4.17556 4.33984 22.2341
rtibia 20.7156
rfoot -11.1 2.36871
rtoes 8.96476
lfemur 1.24406 -4.29847 -20.7057
ltibia 13.776
lfoot -8.03064 -3.91005
ltoes 6.64414
289
root 1.51805 18.1813 0.668507 206.179 87.0149 208.365
lowerback 9.08223 0.703667 -0.335674
upperback 0.482603 0.928256 0.0944553
thorax -4.59964 0.476279 0.166574
lowerneck -20.7631 -6.6228 -12.8805
upperneck 28.1351 -7.59132 9.28732
head 13.9604 -3.31425 4.55517
rclavicle 1.31446e-014 -2.78299e-015
rhumerus -35.6951 -13.8198 -81.438
rradius 28.1498
rwrist 8.99607
rhand -13.1847 9.58896
rfingers 7.12502
rthumb 12.9151 -19.9914
lclavicle 1.31446e-014 -2.78299e-015
lhumerus -38.2659 7.60239 82.6046
lradius 33.9066
lwrist -4.48899
lhand -18.5125 24.4044
lfingers 7.12502
lthumb 7.7757 54.2414
rfemur -4.22571 4.45916 22.3154
rtibia 20.7558
rfoot -11.0995 2.20556
rtoes 9.91266
lfemur 1.30196 -4.14313 -20.635
ltibia 13.6344
lfoot -8.04517 -4.05295
ltoes 6.87834
290
root 1.5223 18.1839 0.685534 205.071 87.1029 207.253
lowerback 9.11063 0.708284 -0.533986
upperback 0.492761 0.913469 0.080863
thorax -4.60775 0.473058 0.265614
lowerneck -20.8771 -6.58421 -12.8123
upperneck 28.1129 -7.53881 9.26208
head 13.9624 -3.28584 4.54094
rclavicle -1.89839e-014 2.18663e-015
rhumerus -35.6222 -13.8012 -81.4548
rradius 28.1878
rwrist 8.88915
rhand -13.3498 9.29146
rfingers 7.12502
rthumb 12.756 -20.2989
lclavicle -1.89839e-014 2.18663e-015
lhumerus -38.2686 7.62507 82.6101
lradius 33.8891
lwrist -4.49835
lhand -18.428 24.1974
lfingers 7.12502
lthumb 7.85723 54.0314
rfemur -4.22481 4.6974 22.299
rtibia 20.8155
rfoot -11.0882 2.05374
rtoes 9.0592
lfemur 1.38431 -4.09333 -20.6653
ltibia 13.5022
lfoot -8.09004 -4.01676
ltoes 6.89356
291
root 1.52483 18.1871 0.699932 203.187 87.1988 205.32
lowerback 9.13216 0.714219 -0.671494
upperback 0.460895 0.903127 0.0109573
thorax -4.65396 0.470075 0.271152
lowerneck -20.9683 -6.57591 -12.7284
upperneck 28.1646 -7.53468 9.21779
head 13.9968 -3.27894 4.51013
rclavicle -4.53478e-015 5.56597e-015
rhumerus -35.608 -14.0407 -81.415
rradius 28.1795
rwrist 9.04433
rhand -13.7801 9.08824
rfingers 7.12502
rthumb 12.3412 -20.5275
lclavicle -4.53478e-015 5.56597e-015
lhumerus -38.2943 7.6701 82.5256
lradius 33.8459
lwrist -4.56907
lhand -18.0035 23.9243
lfingers 7.12502
lthumb 8.26699 53.7426
rfemur -4.3196 4.87669 22.2297
rtibia 20.9235
rfoot -11.0778 1.90024
rtoes 8.12949
lfemur 1.42318 -4.11796 -20.7568
ltibia 13.35
lfoot -8.03389 -3.97949
ltoes 6.23466
292
root 1.52643 18.1835 0.71317 203 87.1939 205.042
lowerback 9.1315 0.727096 -0.698458
upperback 0.392918 0.915734 0.00386661
thorax -4.72498 0.476601 0.276789
lowerneck -20.9739 -6.60975 -12.773
upperneck 28.2032 -7.57316 9.23198
head 14.0235 -3.29824 4.51771
rclavicle 9.98893e-015 -1.39149e-015
rhumerus -35.5996 -14.3629 -81.2571
rradius 28.0983
rwrist 9.21845
rhand -14.0501 8.96241
rfingers 7.12502
rthumb 12.0808 -20.6689
lclavicle 9.98893e-015 -1.39149e-015
lhumerus -38.34 7.79925 82.4445
lradius 33.7507
lwrist -4.88595
lhand -17.6791 23.6216
lfingers 7.12502
lthumb 8.58006 53.4272
rfemur -4.51874 4.98024 22.2888
rtibia 21.0924
rfoot -11.0898 1.70321
rtoes 9.42698
lfemur 1.4229 -4.09497 -20.7085
ltibia 13.1297
lfoot -7.92099 -4.04883
ltoes 5.39513
293
root 1.52714 18.1758 0.726536 203.245 87.1201 205.244
lowerback 9.15643 0.727155 -0.753012
upperback 0.367901 0.91275 0.0709183
thorax -4.76703 0.477017 0.37705
lowerneck -21.0279 -6.66092 -12.8767
upperneck 28.2141 -7.60836 9.24232
head 14.0511 -3.32286 4.53248
rclavicle -5.95112e-015 3.97569e-016
rhumerus -35.4813 -14.5226 -81.0817
rradius 27.9741
rwrist 9.17202
rhand -14.1155 9.05038
rfingers 7.12502
rthumb 12.0177 -20.5846
lclavicle -5.95112e-015 3.97569e-016
lhumerus -38.3508 7.97563 82.4342
lradius 33.6422
lwrist -5.26982
lhand -17.6972 23.5728
lfingers 7.12502
lthumb 8.56259 53.3792
rfemur -4.67779 5.07182 22.4085
rtibia 21.2906
rfoot -11.1532 1.47215
rtoes 10.8868
lfemur 1.46565 -3.94738 -20.6012
ltibia 12.878
lfoot -7.93176 -4.20173
ltoes 3.81774
294
root 1.52722 18.1755 0.739568 202.485 87.0715 204.484
lowerback 9.21599 0.709517 -0.914463
upperback 0.378634 0.877142 0.170393
thorax -4.79283 0.464243 0.575351
lowerneck -21.135 -6.67819 -13.0043
upperneck 28.1891 -7.55919 9.19516
head 14.0606 -3.32127 4.54145
rclavicle -4.69629e-015 2.5842e-015
rhumerus -35.3546 -14.4814 -80.9527
rradius 27.961
rwrist 8.92773
rhand -14.0403 9.05225
rfingers 7.12502
rthumb 12.0903 -20.5784
lclavicle -4.69629e-015 2.5842e-015
lhumerus -38.3704 8.11827 82.52
lradius 33.6329
lwrist -5.30503
lhand -17.9244 23.8071
lfingers 7.12502
lthumb 8.34329 53.6224
rfemur -4.74665 5.08811 22.4663
rtibia 21.4761
rfoot -11.2238 1.38502
rtoes 9.69179
lfemur 1.54651 -3.89451 -20.5603
ltibia 12.6675
lfoot -7.97019 -4.32023
ltoes 3.10414
295
root 1.52655 18.178 0.751869 199.606 87.0974 201.607
lowerback 9.28957 0.680005 -1.11755
upperback 0.382082 0.815127 0.152737
thorax -4.83203 0.438208 0.678692
lowerneck -21.2707 -6.66595 -13.0558
upperneck 28.2565 -7.50818 9.19381
head 14.1141 -3.30288 4.56108
rclavicle 5.81445e-015 4.96962e-015
rhumerus -35.3 -14.3426 -81.0022
rradius 28.0694
rwrist 8.67418
rhand -13.8878 8.93559
rfingers 7.12502
rthumb 12.2373 -20.6864
lclavicle 5.81445e-015 4.96962e-015
lhumerus -38.4121 8.19233 82.4856
lradius 33.6917
lwrist -5.18637
lhand -18.1777 24.1183
lfingers 7.12502
lthumb 8.09886 53.9431
rfemur -4.81346 5.16901 22.3773
rtibia 21.6633
rfoot -11.3403 1.30522
rtoes 8.20471
lfemur 1.65962 -4.04065 -20.685
ltibia 12.4505
lfoot -7.91733 -4.26823
ltoes 3.07081
